<mxfile host="app.diagrams.net" modified="2024-01-05T16:30:25.262Z" agent="Mozilla/5.0 (Windows NT 10.0; Win64; x64) AppleWebKit/537.36 (KHTML, like Gecko) Chrome/120.0.0.0 Safari/537.36" etag="j6nDXpgvpCSxDkhcb3CR" version="22.1.16" type="device">
  <diagram name="Страница — 1" id="GNs12OStVKKTM1uIr7A2">
    <mxGraphModel dx="1206" dy="599" grid="1" gridSize="10" guides="1" tooltips="1" connect="1" arrows="1" fold="1" page="1" pageScale="1" pageWidth="1169" pageHeight="827" math="0" shadow="0">
      <root>
        <mxCell id="0" />
        <mxCell id="1" parent="0" />
        <mxCell id="iHbpIkFbYodwyfg4QH4O-2" value="MCU" style="rounded=0;whiteSpace=wrap;html=1;dashed=1;" vertex="1" parent="1">
          <mxGeometry x="100" y="160" width="60" height="240" as="geometry" />
        </mxCell>
        <mxCell id="iHbpIkFbYodwyfg4QH4O-25" style="edgeStyle=orthogonalEdgeStyle;rounded=0;orthogonalLoop=1;jettySize=auto;html=1;exitX=1;exitY=0.5;exitDx=0;exitDy=0;entryX=0;entryY=0.5;entryDx=0;entryDy=0;" edge="1" parent="1" source="iHbpIkFbYodwyfg4QH4O-3" target="iHbpIkFbYodwyfg4QH4O-24">
          <mxGeometry relative="1" as="geometry" />
        </mxCell>
        <mxCell id="iHbpIkFbYodwyfg4QH4O-3" value="DAC" style="whiteSpace=wrap;html=1;aspect=fixed;" vertex="1" parent="1">
          <mxGeometry x="430" y="180" width="80" height="80" as="geometry" />
        </mxCell>
        <mxCell id="iHbpIkFbYodwyfg4QH4O-4" value="ADC" style="whiteSpace=wrap;html=1;aspect=fixed;" vertex="1" parent="1">
          <mxGeometry x="430" y="300" width="80" height="80" as="geometry" />
        </mxCell>
        <mxCell id="iHbpIkFbYodwyfg4QH4O-6" value="FPGA" style="rounded=0;whiteSpace=wrap;html=1;" vertex="1" parent="1">
          <mxGeometry x="280" y="160" width="60" height="240" as="geometry" />
        </mxCell>
        <mxCell id="iHbpIkFbYodwyfg4QH4O-10" value="" style="shape=flexArrow;endArrow=classic;startArrow=classic;html=1;rounded=0;exitX=1;exitY=0.75;exitDx=0;exitDy=0;entryX=0;entryY=0.75;entryDx=0;entryDy=0;" edge="1" parent="1" source="iHbpIkFbYodwyfg4QH4O-2" target="iHbpIkFbYodwyfg4QH4O-6">
          <mxGeometry width="100" height="100" relative="1" as="geometry">
            <mxPoint x="360" y="340" as="sourcePoint" />
            <mxPoint x="460" y="240" as="targetPoint" />
          </mxGeometry>
        </mxCell>
        <mxCell id="iHbpIkFbYodwyfg4QH4O-18" value="I2S" style="edgeLabel;html=1;align=center;verticalAlign=middle;resizable=0;points=[];" vertex="1" connectable="0" parent="iHbpIkFbYodwyfg4QH4O-10">
          <mxGeometry x="0.03" y="1" relative="1" as="geometry">
            <mxPoint x="-2" y="-19" as="offset" />
          </mxGeometry>
        </mxCell>
        <mxCell id="iHbpIkFbYodwyfg4QH4O-11" value="" style="shape=flexArrow;endArrow=classic;startArrow=classic;html=1;rounded=0;exitX=1;exitY=0.5;exitDx=0;exitDy=0;entryX=0;entryY=0.5;entryDx=0;entryDy=0;" edge="1" parent="1" source="iHbpIkFbYodwyfg4QH4O-2" target="iHbpIkFbYodwyfg4QH4O-6">
          <mxGeometry width="100" height="100" relative="1" as="geometry">
            <mxPoint x="160" y="270" as="sourcePoint" />
            <mxPoint x="260" y="170" as="targetPoint" />
          </mxGeometry>
        </mxCell>
        <mxCell id="iHbpIkFbYodwyfg4QH4O-17" value="CFG" style="edgeLabel;html=1;align=center;verticalAlign=middle;resizable=0;points=[];" vertex="1" connectable="0" parent="iHbpIkFbYodwyfg4QH4O-11">
          <mxGeometry x="-0.02" y="1" relative="1" as="geometry">
            <mxPoint y="-19" as="offset" />
          </mxGeometry>
        </mxCell>
        <mxCell id="iHbpIkFbYodwyfg4QH4O-12" value="" style="shape=flexArrow;endArrow=classic;startArrow=classic;html=1;rounded=0;entryX=0;entryY=0.5;entryDx=0;entryDy=0;" edge="1" parent="1">
          <mxGeometry width="100" height="100" relative="1" as="geometry">
            <mxPoint x="160" y="210" as="sourcePoint" />
            <mxPoint x="280" y="210" as="targetPoint" />
          </mxGeometry>
        </mxCell>
        <mxCell id="iHbpIkFbYodwyfg4QH4O-16" value="SPI" style="edgeLabel;html=1;align=center;verticalAlign=middle;resizable=0;points=[];" vertex="1" connectable="0" parent="iHbpIkFbYodwyfg4QH4O-12">
          <mxGeometry x="-0.0533" y="-7" relative="1" as="geometry">
            <mxPoint x="3" y="-22" as="offset" />
          </mxGeometry>
        </mxCell>
        <mxCell id="iHbpIkFbYodwyfg4QH4O-13" value="" style="shape=flexArrow;endArrow=classic;html=1;rounded=0;entryX=0;entryY=0.5;entryDx=0;entryDy=0;exitX=1;exitY=0.25;exitDx=0;exitDy=0;" edge="1" parent="1" source="iHbpIkFbYodwyfg4QH4O-6" target="iHbpIkFbYodwyfg4QH4O-3">
          <mxGeometry width="50" height="50" relative="1" as="geometry">
            <mxPoint x="400" y="210" as="sourcePoint" />
            <mxPoint x="440" y="270" as="targetPoint" />
          </mxGeometry>
        </mxCell>
        <mxCell id="iHbpIkFbYodwyfg4QH4O-14" value="" style="shape=flexArrow;endArrow=classic;html=1;rounded=0;entryX=1;entryY=0.75;entryDx=0;entryDy=0;exitX=0;exitY=0.5;exitDx=0;exitDy=0;" edge="1" parent="1" source="iHbpIkFbYodwyfg4QH4O-4" target="iHbpIkFbYodwyfg4QH4O-6">
          <mxGeometry width="50" height="50" relative="1" as="geometry">
            <mxPoint x="430" y="270" as="sourcePoint" />
            <mxPoint x="490" y="220" as="targetPoint" />
          </mxGeometry>
        </mxCell>
        <mxCell id="iHbpIkFbYodwyfg4QH4O-22" value="XTAL" style="rounded=0;whiteSpace=wrap;html=1;" vertex="1" parent="1">
          <mxGeometry x="290" y="110" width="40" height="30" as="geometry" />
        </mxCell>
        <mxCell id="iHbpIkFbYodwyfg4QH4O-23" value="" style="endArrow=classic;html=1;rounded=0;exitX=0.5;exitY=1;exitDx=0;exitDy=0;entryX=0.5;entryY=0;entryDx=0;entryDy=0;" edge="1" parent="1" source="iHbpIkFbYodwyfg4QH4O-22" target="iHbpIkFbYodwyfg4QH4O-6">
          <mxGeometry width="50" height="50" relative="1" as="geometry">
            <mxPoint x="390" y="320" as="sourcePoint" />
            <mxPoint x="440" y="270" as="targetPoint" />
          </mxGeometry>
        </mxCell>
        <mxCell id="iHbpIkFbYodwyfg4QH4O-33" style="edgeStyle=orthogonalEdgeStyle;rounded=0;orthogonalLoop=1;jettySize=auto;html=1;exitX=1;exitY=0.5;exitDx=0;exitDy=0;entryX=0;entryY=0.5;entryDx=0;entryDy=0;" edge="1" parent="1" source="iHbpIkFbYodwyfg4QH4O-24" target="iHbpIkFbYodwyfg4QH4O-26">
          <mxGeometry relative="1" as="geometry" />
        </mxCell>
        <mxCell id="iHbpIkFbYodwyfg4QH4O-24" value="LPF" style="rounded=0;whiteSpace=wrap;html=1;" vertex="1" parent="1">
          <mxGeometry x="550" y="195" width="50" height="50" as="geometry" />
        </mxCell>
        <mxCell id="iHbpIkFbYodwyfg4QH4O-26" value="BUF" style="triangle;whiteSpace=wrap;html=1;" vertex="1" parent="1">
          <mxGeometry x="640" y="180" width="60" height="80" as="geometry" />
        </mxCell>
        <mxCell id="iHbpIkFbYodwyfg4QH4O-28" style="edgeStyle=orthogonalEdgeStyle;rounded=0;orthogonalLoop=1;jettySize=auto;html=1;exitX=0;exitY=0.5;exitDx=0;exitDy=0;entryX=1;entryY=0.5;entryDx=0;entryDy=0;" edge="1" parent="1" source="iHbpIkFbYodwyfg4QH4O-27" target="iHbpIkFbYodwyfg4QH4O-4">
          <mxGeometry relative="1" as="geometry" />
        </mxCell>
        <mxCell id="iHbpIkFbYodwyfg4QH4O-27" value="IA" style="triangle;whiteSpace=wrap;html=1;flipV=0;flipH=1;" vertex="1" parent="1">
          <mxGeometry x="580" y="300" width="60" height="80" as="geometry" />
        </mxCell>
        <mxCell id="iHbpIkFbYodwyfg4QH4O-29" value="" style="verticalLabelPosition=bottom;verticalAlign=top;html=1;shape=mxgraph.basic.rect;fillColor2=none;strokeWidth=2;size=20;indent=5;" vertex="1" parent="1">
          <mxGeometry x="740" y="210" width="60" height="20" as="geometry" />
        </mxCell>
        <mxCell id="iHbpIkFbYodwyfg4QH4O-31" value="" style="endArrow=none;html=1;rounded=0;exitDx=0;exitDy=0;" edge="1" parent="1" source="iHbpIkFbYodwyfg4QH4O-61" target="iHbpIkFbYodwyfg4QH4O-29">
          <mxGeometry width="50" height="50" relative="1" as="geometry">
            <mxPoint x="420" y="270" as="sourcePoint" />
            <mxPoint x="730" y="180" as="targetPoint" />
          </mxGeometry>
        </mxCell>
        <mxCell id="iHbpIkFbYodwyfg4QH4O-34" value="R_sense" style="text;html=1;align=center;verticalAlign=middle;resizable=0;points=[];autosize=1;strokeColor=none;fillColor=none;" vertex="1" parent="1">
          <mxGeometry x="735" y="180" width="70" height="30" as="geometry" />
        </mxCell>
        <mxCell id="iHbpIkFbYodwyfg4QH4O-35" value="" style="endArrow=none;html=1;rounded=0;targetPerimeterSpacing=7;" edge="1" parent="1">
          <mxGeometry width="50" height="50" relative="1" as="geometry">
            <mxPoint x="720" y="320" as="sourcePoint" />
            <mxPoint x="720" y="220" as="targetPoint" />
          </mxGeometry>
        </mxCell>
        <mxCell id="iHbpIkFbYodwyfg4QH4O-36" value="" style="endArrow=none;html=1;rounded=0;exitX=-0.037;exitY=0.285;exitDx=0;exitDy=0;exitPerimeter=0;" edge="1" parent="1">
          <mxGeometry width="50" height="50" relative="1" as="geometry">
            <mxPoint x="640" y="319.99999999999994" as="sourcePoint" />
            <mxPoint x="720" y="320" as="targetPoint" />
          </mxGeometry>
        </mxCell>
        <mxCell id="iHbpIkFbYodwyfg4QH4O-37" value="" style="endArrow=none;html=1;rounded=0;exitX=-0.037;exitY=0.285;exitDx=0;exitDy=0;exitPerimeter=0;" edge="1" parent="1">
          <mxGeometry width="50" height="50" relative="1" as="geometry">
            <mxPoint x="640" y="359.99999999999994" as="sourcePoint" />
            <mxPoint x="820" y="360" as="targetPoint" />
          </mxGeometry>
        </mxCell>
        <mxCell id="iHbpIkFbYodwyfg4QH4O-38" value="" style="endArrow=none;html=1;rounded=0;targetPerimeterSpacing=7;" edge="1" parent="1">
          <mxGeometry width="50" height="50" relative="1" as="geometry">
            <mxPoint x="820" y="360" as="sourcePoint" />
            <mxPoint x="820" y="220" as="targetPoint" />
          </mxGeometry>
        </mxCell>
        <mxCell id="iHbpIkFbYodwyfg4QH4O-39" value="" style="endArrow=none;html=1;rounded=0;exitDx=0;exitDy=0;" edge="1" parent="1" source="iHbpIkFbYodwyfg4QH4O-63">
          <mxGeometry width="50" height="50" relative="1" as="geometry">
            <mxPoint x="800" y="219.86" as="sourcePoint" />
            <mxPoint x="840" y="219.86" as="targetPoint" />
          </mxGeometry>
        </mxCell>
        <mxCell id="iHbpIkFbYodwyfg4QH4O-40" value="lowpass filter" style="text;html=1;align=center;verticalAlign=middle;resizable=0;points=[];autosize=1;strokeColor=none;fillColor=none;" vertex="1" parent="1">
          <mxGeometry x="530" y="245" width="90" height="30" as="geometry" />
        </mxCell>
        <mxCell id="iHbpIkFbYodwyfg4QH4O-41" value="instrumentation&lt;br&gt;amplifier" style="text;html=1;align=center;verticalAlign=middle;resizable=0;points=[];autosize=1;strokeColor=none;fillColor=none;" vertex="1" parent="1">
          <mxGeometry x="550" y="373" width="110" height="40" as="geometry" />
        </mxCell>
        <mxCell id="iHbpIkFbYodwyfg4QH4O-42" value="current&lt;br&gt;sensing&lt;br&gt;resistor" style="text;html=1;align=center;verticalAlign=middle;resizable=0;points=[];autosize=1;strokeColor=none;fillColor=none;" vertex="1" parent="1">
          <mxGeometry x="740" y="230" width="60" height="60" as="geometry" />
        </mxCell>
        <mxCell id="iHbpIkFbYodwyfg4QH4O-43" value="8..14" style="text;html=1;align=center;verticalAlign=middle;resizable=0;points=[];autosize=1;strokeColor=none;fillColor=none;" vertex="1" parent="1">
          <mxGeometry x="360" y="188" width="50" height="30" as="geometry" />
        </mxCell>
        <mxCell id="iHbpIkFbYodwyfg4QH4O-44" value="8..12" style="text;html=1;align=center;verticalAlign=middle;resizable=0;points=[];autosize=1;strokeColor=none;fillColor=none;" vertex="1" parent="1">
          <mxGeometry x="360" y="300" width="50" height="30" as="geometry" />
        </mxCell>
        <mxCell id="iHbpIkFbYodwyfg4QH4O-46" value="" style="verticalLabelPosition=bottom;verticalAlign=top;html=1;shape=mxgraph.basic.arc;startAngle=0.7515914963824541;endAngle=0.2484085036175459;strokeWidth=2;" vertex="1" parent="1">
          <mxGeometry x="840" y="210" width="20" height="20" as="geometry" />
        </mxCell>
        <mxCell id="iHbpIkFbYodwyfg4QH4O-47" value="" style="verticalLabelPosition=bottom;verticalAlign=top;html=1;shape=mxgraph.basic.arc;startAngle=0.7515914963824541;endAngle=0.2484085036175459;strokeWidth=2;" vertex="1" parent="1">
          <mxGeometry x="860" y="210" width="20" height="20" as="geometry" />
        </mxCell>
        <mxCell id="iHbpIkFbYodwyfg4QH4O-48" value="" style="verticalLabelPosition=bottom;verticalAlign=top;html=1;shape=mxgraph.basic.arc;startAngle=0.7515914963824541;endAngle=0.2484085036175459;strokeWidth=2;" vertex="1" parent="1">
          <mxGeometry x="880" y="210" width="20" height="20" as="geometry" />
        </mxCell>
        <mxCell id="iHbpIkFbYodwyfg4QH4O-49" value="" style="verticalLabelPosition=bottom;verticalAlign=top;html=1;shape=mxgraph.basic.arc;startAngle=0.7515914963824541;endAngle=0.2484085036175459;strokeWidth=2;" vertex="1" parent="1">
          <mxGeometry x="900" y="210" width="20" height="20" as="geometry" />
        </mxCell>
        <mxCell id="iHbpIkFbYodwyfg4QH4O-50" value="" style="endArrow=none;html=1;rounded=0;exitDx=0;exitDy=0;" edge="1" parent="1" source="iHbpIkFbYodwyfg4QH4O-65">
          <mxGeometry width="50" height="50" relative="1" as="geometry">
            <mxPoint x="920" y="219.8" as="sourcePoint" />
            <mxPoint x="960" y="219.8" as="targetPoint" />
          </mxGeometry>
        </mxCell>
        <mxCell id="iHbpIkFbYodwyfg4QH4O-51" value="" style="endArrow=none;html=1;rounded=0;targetPerimeterSpacing=7;" edge="1" parent="1">
          <mxGeometry width="50" height="50" relative="1" as="geometry">
            <mxPoint x="960" y="260" as="sourcePoint" />
            <mxPoint x="960" y="220" as="targetPoint" />
          </mxGeometry>
        </mxCell>
        <mxCell id="iHbpIkFbYodwyfg4QH4O-52" value="" style="endArrow=none;html=1;rounded=0;exitX=1;exitY=0.5;exitDx=0;exitDy=0;strokeWidth=3;" edge="1" parent="1">
          <mxGeometry width="50" height="50" relative="1" as="geometry">
            <mxPoint x="940" y="259.8" as="sourcePoint" />
            <mxPoint x="980" y="259.8" as="targetPoint" />
          </mxGeometry>
        </mxCell>
        <mxCell id="iHbpIkFbYodwyfg4QH4O-53" value="" style="endArrow=none;html=1;rounded=0;exitX=1;exitY=0.5;exitDx=0;exitDy=0;strokeWidth=3;" edge="1" parent="1">
          <mxGeometry width="50" height="50" relative="1" as="geometry">
            <mxPoint x="940" y="269.8" as="sourcePoint" />
            <mxPoint x="980" y="269.8" as="targetPoint" />
          </mxGeometry>
        </mxCell>
        <mxCell id="iHbpIkFbYodwyfg4QH4O-54" value="" style="endArrow=none;html=1;rounded=0;targetPerimeterSpacing=7;" edge="1" parent="1">
          <mxGeometry width="50" height="50" relative="1" as="geometry">
            <mxPoint x="960" y="310" as="sourcePoint" />
            <mxPoint x="960" y="270" as="targetPoint" />
          </mxGeometry>
        </mxCell>
        <mxCell id="iHbpIkFbYodwyfg4QH4O-55" value="" style="endArrow=none;html=1;rounded=0;strokeWidth=4;" edge="1" parent="1">
          <mxGeometry width="50" height="50" relative="1" as="geometry">
            <mxPoint x="950" y="310" as="sourcePoint" />
            <mxPoint x="970" y="310" as="targetPoint" />
          </mxGeometry>
        </mxCell>
        <mxCell id="iHbpIkFbYodwyfg4QH4O-56" value="" style="endArrow=none;html=1;rounded=0;targetPerimeterSpacing=7;" edge="1" parent="1">
          <mxGeometry width="50" height="50" relative="1" as="geometry">
            <mxPoint x="960" y="220" as="sourcePoint" />
            <mxPoint x="960" y="180" as="targetPoint" />
          </mxGeometry>
        </mxCell>
        <mxCell id="iHbpIkFbYodwyfg4QH4O-57" value="" style="endArrow=none;html=1;rounded=0;targetPerimeterSpacing=7;strokeWidth=3;" edge="1" parent="1">
          <mxGeometry width="50" height="50" relative="1" as="geometry">
            <mxPoint x="960" y="180" as="sourcePoint" />
            <mxPoint x="940" y="150" as="targetPoint" />
          </mxGeometry>
        </mxCell>
        <mxCell id="iHbpIkFbYodwyfg4QH4O-58" value="" style="endArrow=none;html=1;rounded=0;targetPerimeterSpacing=7;strokeWidth=3;" edge="1" parent="1">
          <mxGeometry width="50" height="50" relative="1" as="geometry">
            <mxPoint x="980" y="150" as="sourcePoint" />
            <mxPoint x="960" y="180" as="targetPoint" />
          </mxGeometry>
        </mxCell>
        <mxCell id="iHbpIkFbYodwyfg4QH4O-59" value="" style="endArrow=none;html=1;rounded=0;targetPerimeterSpacing=7;strokeWidth=3;" edge="1" parent="1">
          <mxGeometry width="50" height="50" relative="1" as="geometry">
            <mxPoint x="960" y="150" as="sourcePoint" />
            <mxPoint x="960" y="180" as="targetPoint" />
          </mxGeometry>
        </mxCell>
        <mxCell id="iHbpIkFbYodwyfg4QH4O-62" value="" style="endArrow=none;html=1;rounded=0;exitX=1;exitY=0.5;exitDx=0;exitDy=0;" edge="1" parent="1" source="iHbpIkFbYodwyfg4QH4O-26" target="iHbpIkFbYodwyfg4QH4O-61">
          <mxGeometry width="50" height="50" relative="1" as="geometry">
            <mxPoint x="700" y="220" as="sourcePoint" />
            <mxPoint x="740" y="220" as="targetPoint" />
          </mxGeometry>
        </mxCell>
        <mxCell id="iHbpIkFbYodwyfg4QH4O-61" value="" style="shape=waypoint;sketch=0;fillStyle=solid;size=6;pointerEvents=1;points=[];fillColor=none;resizable=0;rotatable=0;perimeter=centerPerimeter;snapToPoint=1;" vertex="1" parent="1">
          <mxGeometry x="710" y="210" width="20" height="20" as="geometry" />
        </mxCell>
        <mxCell id="iHbpIkFbYodwyfg4QH4O-64" value="" style="endArrow=none;html=1;rounded=0;exitX=1;exitY=0.5;exitDx=0;exitDy=0;" edge="1" parent="1" target="iHbpIkFbYodwyfg4QH4O-63">
          <mxGeometry width="50" height="50" relative="1" as="geometry">
            <mxPoint x="800" y="219.86" as="sourcePoint" />
            <mxPoint x="840" y="219.86" as="targetPoint" />
          </mxGeometry>
        </mxCell>
        <mxCell id="iHbpIkFbYodwyfg4QH4O-63" value="" style="shape=waypoint;sketch=0;fillStyle=solid;size=6;pointerEvents=1;points=[];fillColor=none;resizable=0;rotatable=0;perimeter=centerPerimeter;snapToPoint=1;" vertex="1" parent="1">
          <mxGeometry x="810" y="210" width="20" height="20" as="geometry" />
        </mxCell>
        <mxCell id="iHbpIkFbYodwyfg4QH4O-66" value="" style="endArrow=none;html=1;rounded=0;exitX=1;exitY=0.5;exitDx=0;exitDy=0;" edge="1" parent="1" target="iHbpIkFbYodwyfg4QH4O-65">
          <mxGeometry width="50" height="50" relative="1" as="geometry">
            <mxPoint x="920" y="219.8" as="sourcePoint" />
            <mxPoint x="960" y="219.8" as="targetPoint" />
          </mxGeometry>
        </mxCell>
        <mxCell id="iHbpIkFbYodwyfg4QH4O-65" value="" style="shape=waypoint;sketch=0;fillStyle=solid;size=6;pointerEvents=1;points=[];fillColor=none;resizable=0;rotatable=0;perimeter=centerPerimeter;snapToPoint=1;" vertex="1" parent="1">
          <mxGeometry x="950" y="210" width="20" height="20" as="geometry" />
        </mxCell>
        <mxCell id="iHbpIkFbYodwyfg4QH4O-67" value="L" style="text;html=1;align=center;verticalAlign=middle;resizable=0;points=[];autosize=1;strokeColor=none;fillColor=none;" vertex="1" parent="1">
          <mxGeometry x="865" y="178" width="30" height="30" as="geometry" />
        </mxCell>
        <mxCell id="iHbpIkFbYodwyfg4QH4O-68" value="inductor" style="text;html=1;align=center;verticalAlign=middle;resizable=0;points=[];autosize=1;strokeColor=none;fillColor=none;" vertex="1" parent="1">
          <mxGeometry x="845" y="215" width="70" height="30" as="geometry" />
        </mxCell>
        <mxCell id="iHbpIkFbYodwyfg4QH4O-69" value="C_antenna" style="text;html=1;align=center;verticalAlign=middle;resizable=0;points=[];autosize=1;strokeColor=none;fillColor=none;" vertex="1" parent="1">
          <mxGeometry x="880" y="270" width="80" height="30" as="geometry" />
        </mxCell>
        <mxCell id="iHbpIkFbYodwyfg4QH4O-70" value="antenna" style="text;html=1;align=center;verticalAlign=middle;resizable=0;points=[];autosize=1;strokeColor=none;fillColor=none;" vertex="1" parent="1">
          <mxGeometry x="920" y="120" width="70" height="30" as="geometry" />
        </mxCell>
        <mxCell id="iHbpIkFbYodwyfg4QH4O-72" value="Theremin Sensor Block Diagram" style="text;html=1;align=center;verticalAlign=middle;resizable=0;points=[];autosize=1;strokeColor=none;fillColor=none;fontSize=15;fontStyle=1" vertex="1" parent="1">
          <mxGeometry x="410" y="120" width="260" height="30" as="geometry" />
        </mxCell>
      </root>
    </mxGraphModel>
  </diagram>
</mxfile>
